# xmcd CD database file
#
# Track frame offsets:
#	150
#	9326
#	31299
#	51578
#	76555
#	98765
#	120178
#	138002
#	160943
#	182887
#	204682
#	219481
#
# Disc length: 3015 seconds
#
# Revision: 0
# Processed by: cddbd v1.5.1PL0 Copyright (c) Steve Scherf et al.
# Submitted via: CDex 1.51
#
DISCID=920bc50c
DTITLE=China Music Orchestra - Made in China
DYEAR=2004
DGENRE=Instrumental
TTITLE0=誕生 ~朝~
TTITLE1=RYDEEN
TTITLE2=出発
TTITLE3=メリー・アン
TTITLE4=旅人
TTITLE5=TONG POO
TTITLE6=最初から今まで
TTITLE7=MERRY CHRISTMAS MR．LAWRENCE
TTITLE8=SUITE FROM THE PLANETS
TTITLE9=OUT OF THE BLUE
TTITLE10=大河
TTITLE11=誕生 ~夜~
EXTD=YEAR: 2004
EXTT0=
EXTT1=
EXTT2=
EXTT3=
EXTT4=
EXTT5=
EXTT6=
EXTT7=
EXTT8=
EXTT9=
EXTT10=
EXTT11=
PLAYORDER=
